# xmcd
#
# Track frame offsets:
#	150
#	11294
#	24526
#	37318
#	48461
#	60294
#	71649
#	83768
#	94061
#	111359
#	123800
#	135416
#	146875
#	158416
#
# Disc length: 2268 seconds
# Revision: 0
# Processed by: cddbd v1.5.2PL0 Copyright (c) Steve Scherf et al.
# Submitted via: dBpowerAMP V12.0
#
DISCID=b308da0e
DTITLE=Brook Benton - A Rockin' good way
DYEAR=2004
DGENRE=Soul
TTITLE0=A Rockin' good way
TTITLE1=Baby
TTITLE2=The Boll Weevil Song
TTITLE3=Endlessly
TTITLE4=Hotel Happiness
TTITLE5=It's just a matter of time
TTITLE6=Kiddio
TTITLE7=Lie to me
TTITLE8=Rainy night in Georgia
TTITLE9=Revenge
TTITLE10=The same one
TTITLE11=So many Ways
TTITLE12=Thank you pretty baby
TTITLE13=Think Twice
EXTD=
EXTT0=
EXTT1=
EXTT2=
EXTT3=
EXTT4=
EXTT5=
EXTT6=
EXTT7=
EXTT8=
EXTT9=
EXTT10=
EXTT11=
EXTT12=
EXTT13=
PLAYORDER=
